<svg width="45" height="43" viewBox="0 0 45 43" fill="none" xmlns="http://www.w3.org/2000/svg">
<path d="M34.5 13.2008L31.3 24.4008H17.7L14.5 10.8008H10.5M24.9 14.0008V20.4008M21.7 17.2008H28.1" stroke="#4B5563" stroke-width="2"/>
<path d="M20.8 29.8023C20.8 30.5755 20.1732 31.2023 19.4 31.2023C18.6268 31.2023 18 30.5755 18 29.8023C18 29.0291 18.6268 28.4023 19.4 28.4023C20.1732 28.4023 20.8 29.0291 20.8 29.8023Z" stroke="#4B5563" stroke-width="2"/>
<path d="M31.0998 29.8023C31.0998 30.5755 30.473 31.2023 29.6998 31.2023C28.9266 31.2023 28.2998 30.5755 28.2998 29.8023C28.2998 29.0291 28.9266 28.4023 29.6998 28.4023C30.473 28.4023 31.0998 29.0291 31.0998 29.8023Z" stroke="#4B5563" stroke-width="2"/>
</svg>
