<svg width="21" height="21" viewBox="0 0 21 21" fill="none" xmlns="http://www.w3.org/2000/svg">
<path fill-rule="evenodd" clip-rule="evenodd" d="M2.41976 1.5H0.5V0.5H2.41976C2.99957 0.5 3.52957 0.821007 3.78859 1.32918L4.51336 2.75H18.9678C20.116 2.75 20.8552 3.94347 20.3252 4.94203L17.9656 9.39039C17.8217 9.66123 17.6369 9.9089 17.4167 10.1248C16.8448 10.6852 16.0693 11 15.2608 11H9.23156C8.84253 11 8.46445 10.917 8.12025 10.7626L6.72253 12.9805C6.65627 13.0861 6.62091 13.2077 6.62091 13.3317C6.62091 13.7008 6.92626 14 7.30284 14H19.6278V15H7.30284C6.36288 15 5.60076 14.2531 5.60076 13.3317C5.60076 13.022 5.68892 12.7185 5.8548 12.455L7.28889 10.1787C7.22015 10.1075 7.15539 10.0321 7.09462 9.95279C7.05178 9.89654 7.01094 9.83864 6.97258 9.77924C6.92576 9.70596 6.88242 9.63038 6.84257 9.55279L2.87604 1.77639C2.78986 1.607 2.61303 1.5 2.41976 1.5ZM5.02344 3.75L7.75513 9.10558C7.79946 9.19239 7.85176 9.27513 7.91104 9.35278C8.22286 9.76022 8.71202 10 9.23156 10H15.2608C15.7988 10 16.3148 9.79053 16.6949 9.41766C16.8418 9.27403 16.9649 9.10925 17.0605 8.92903L19.4201 4.48067C19.597 4.14782 19.3504 3.75 18.9678 3.75H5.02344Z" fill="#FDE047"/>
<path d="M18.8627 18.75C18.8627 19.7165 18.0632 20.5 17.0775 20.5C16.0917 20.5 15.2922 19.7165 15.2922 18.75C15.2922 17.7835 16.0917 17 17.0775 17C18.0632 17 18.8627 17.7835 18.8627 18.75Z" fill="#FDE047"/>
<path d="M7.38602 20.5C8.3718 20.5 9.17129 19.7165 9.17129 18.75C9.17129 17.7835 8.3718 17 7.38602 17C6.40024 17 5.60076 17.7835 5.60076 18.75C5.60076 19.7165 6.40024 20.5 7.38602 20.5Z" fill="#FDE047"/>
<path fill-rule="evenodd" clip-rule="evenodd" d="M2.41976 1.5H0.5V0.5H2.41976C2.99957 0.5 3.52957 0.821007 3.78859 1.32918L4.51336 2.75H18.9678C20.116 2.75 20.8552 3.94347 20.3252 4.94203L17.9656 9.39039C17.8217 9.66123 17.6369 9.9089 17.4167 10.1248C16.8448 10.6852 16.0693 11 15.2608 11H9.23156C8.84253 11 8.46445 10.917 8.12025 10.7626L6.72253 12.9805C6.65627 13.0861 6.62091 13.2077 6.62091 13.3317C6.62091 13.7008 6.92626 14 7.30284 14H19.6278V15H7.30284C6.36288 15 5.60076 14.2531 5.60076 13.3317C5.60076 13.022 5.68892 12.7185 5.8548 12.455L7.28889 10.1787C7.22015 10.1075 7.15539 10.0321 7.09462 9.95279C7.05178 9.89654 7.01094 9.83864 6.97258 9.77924C6.92576 9.70596 6.88242 9.63038 6.84257 9.55279L2.87604 1.77639C2.78986 1.607 2.61303 1.5 2.41976 1.5ZM5.02344 3.75L7.75513 9.10558C7.79946 9.19239 7.85176 9.27513 7.91104 9.35278C8.22286 9.76022 8.71202 10 9.23156 10H15.2608C15.7988 10 16.3148 9.79053 16.6949 9.41766C16.8418 9.27403 16.9649 9.10925 17.0605 8.92903L19.4201 4.48067C19.597 4.14782 19.3504 3.75 18.9678 3.75H5.02344Z" stroke="#FDE047"/>
<path d="M18.8627 18.75C18.8627 19.7165 18.0632 20.5 17.0775 20.5C16.0917 20.5 15.2922 19.7165 15.2922 18.75C15.2922 17.7835 16.0917 17 17.0775 17C18.0632 17 18.8627 17.7835 18.8627 18.75Z" stroke="#FDE047"/>
<path d="M7.38602 20.5C8.3718 20.5 9.17129 19.7165 9.17129 18.75C9.17129 17.7835 8.3718 17 7.38602 17C6.40024 17 5.60076 17.7835 5.60076 18.75C5.60076 19.7165 6.40024 20.5 7.38602 20.5Z" stroke="#FDE047"/>
</svg>
