<svg width="18" height="18" viewBox="0 0 18 18" fill="none" xmlns="http://www.w3.org/2000/svg">
<path d="M8.75 15.5C6.8625 15.5 5.26562 15.2094 3.95937 14.6281C2.65312 14.0469 2 13.3375 2 12.5V5C2 4.175 2.65937 3.46875 3.97813 2.88125C5.29688 2.29375 6.8875 2 8.75 2C10.6125 2 12.2031 2.29375 13.5219 2.88125C14.8406 3.46875 15.5 4.175 15.5 5V12.5C15.5 13.3375 14.8469 14.0469 13.5406 14.6281C12.2344 15.2094 10.6375 15.5 8.75 15.5ZM8.75 6.51875C9.8625 6.51875 10.9813 6.35938 12.1063 6.04063C13.2313 5.72188 13.8625 5.38125 14 5.01875C13.8625 4.65625 13.2344 4.3125 12.1156 3.9875C10.9969 3.6625 9.875 3.5 8.75 3.5C7.6125 3.5 6.49687 3.65938 5.40312 3.97813C4.30937 4.29688 3.675 4.64375 3.5 5.01875C3.675 5.39375 4.30937 5.7375 5.40312 6.05C6.49687 6.3625 7.6125 6.51875 8.75 6.51875ZM8.75 10.25C9.275 10.25 9.78125 10.225 10.2688 10.175C10.7563 10.125 11.2219 10.0531 11.6656 9.95938C12.1094 9.86563 12.5281 9.75 12.9219 9.6125C13.3156 9.475 13.675 9.31875 14 9.14375V6.89375C13.675 7.06875 13.3156 7.225 12.9219 7.3625C12.5281 7.5 12.1094 7.61563 11.6656 7.70938C11.2219 7.80313 10.7563 7.875 10.2688 7.925C9.78125 7.975 9.275 8 8.75 8C8.225 8 7.7125 7.975 7.2125 7.925C6.7125 7.875 6.24062 7.80313 5.79688 7.70938C5.35313 7.61563 4.9375 7.5 4.55 7.3625C4.1625 7.225 3.8125 7.06875 3.5 6.89375V9.14375C3.8125 9.31875 4.1625 9.475 4.55 9.6125C4.9375 9.75 5.35313 9.86563 5.79688 9.95938C6.24062 10.0531 6.7125 10.125 7.2125 10.175C7.7125 10.225 8.225 10.25 8.75 10.25ZM8.75 14C9.325 14 9.90938 13.9563 10.5031 13.8687C11.0969 13.7812 11.6438 13.6656 12.1438 13.5219C12.6438 13.3781 13.0625 13.2156 13.4 13.0344C13.7375 12.8531 13.9375 12.6688 14 12.4813V10.6438C13.675 10.8188 13.3156 10.975 12.9219 11.1125C12.5281 11.25 12.1094 11.3656 11.6656 11.4594C11.2219 11.5531 10.7563 11.625 10.2688 11.675C9.78125 11.725 9.275 11.75 8.75 11.75C8.225 11.75 7.7125 11.725 7.2125 11.675C6.7125 11.625 6.24062 11.5531 5.79688 11.4594C5.35313 11.3656 4.9375 11.25 4.55 11.1125C4.1625 10.975 3.8125 10.8188 3.5 10.6438V12.5C3.5625 12.6875 3.75938 12.8688 4.09063 13.0438C4.42188 13.2188 4.8375 13.3781 5.3375 13.5219C5.8375 13.6656 6.3875 13.7812 6.9875 13.8687C7.5875 13.9563 8.175 14 8.75 14Z" fill="#9CA3AF"/>
</svg>
