<svg width="15" height="15" viewBox="0 0 15 15" fill="none" xmlns="http://www.w3.org/2000/svg">
<path d="M7.53807 15C6.16048 15 5.30769 14.0948 5.30769 12.5431V1.2931C5.30769 0.498769 5.78329 0 6.45568 0H8.63686C12.3924 0 15 2.90025 15 7.55542C15 9.05172 14.7376 10.3448 14.2292 11.4717C13.1796 13.7069 11.1952 15 8.63686 15H7.53807ZM6.89848 12.5062C6.89848 13.0049 7.19367 13.3374 7.63647 13.3374H8.63686C9.50605 13.3374 10.3096 13.1158 11.0148 12.6539C12.4744 11.7488 13.36 9.90148 13.36 7.51847C13.36 6.26232 13.1468 5.19089 12.7368 4.28571C11.9004 2.56773 10.4244 1.66256 8.63686 1.66256H7.14448C7.01328 1.66256 6.89848 1.79187 6.89848 1.93966V12.5062Z" fill="#333333"/>
<path d="M2.07692 3.33333C2.07692 3.94698 1.61199 4.44444 1.03846 4.44444C0.464935 4.44444 0 3.94698 0 3.33333C0 2.71968 0.464935 2.22222 1.03846 2.22222C1.61199 2.22222 2.07692 2.71968 2.07692 3.33333Z" fill="#333333"/>
<path d="M2.07692 11.6667C2.07692 12.2803 1.61199 12.7778 1.03846 12.7778C0.464935 12.7778 0 12.2803 0 11.6667C0 11.053 0.464935 10.5556 1.03846 10.5556C1.61199 10.5556 2.07692 11.053 2.07692 11.6667Z" fill="#333333"/>
</svg>
