<svg width="92" height="35" viewBox="0 0 92 35" fill="none" xmlns="http://www.w3.org/2000/svg">
<path fill-rule="evenodd" clip-rule="evenodd" d="M42.9641 32.1143V1.9423H45.1284V33.0571C45.1284 33.5779 44.6439 34 44.0462 34H10.8163C10.4354 34 10.0825 33.8255 9.88721 33.5406L9.63923 33.1788C9.53905 33.0326 9.48615 32.8656 9.48615 32.6953V12.4345H11.6504V32.1143H42.9641Z" fill="#FDE047"/>
<path fill-rule="evenodd" clip-rule="evenodd" d="M10.3985 1.07313C10.5309 1.02486 10.6729 1 10.8164 1H44.0463C44.4822 1 44.8756 1.22789 45.0442 1.57812C45.2128 1.92836 45.1238 2.33256 44.8184 2.60354L35.643 10.744C35.4395 10.9246 35.1613 11.0263 34.8709 11.0263H2.38487C1.96097 11.0263 1.57611 10.8106 1.40026 10.4745C1.22441 10.1385 1.28995 9.74388 1.56794 9.46504L9.50346 1.50544C9.61254 1.39602 9.7491 1.30999 9.90254 1.25403L10.3985 1.07313ZM10.9715 2.90844L11.0337 2.88575H41.4669L34.4169 9.14051H4.75828L10.9715 2.90844Z" fill="#FDE047"/>
<path fill-rule="evenodd" clip-rule="evenodd" d="M4.12484 14.3677C4.66944 14.591 5.25832 14.7079 5.85664 14.7079C6.45496 14.7079 7.04384 14.591 7.58843 14.3677C8.13254 14.1446 8.61853 13.821 9.02234 13.4212C9.42594 13.0216 9.74072 12.5528 9.95374 12.0437C10.1667 11.5345 10.2753 10.9918 10.2753 10.4458V9.62074H1.438L1.438 10.4458C1.438 10.9918 1.54653 11.5345 1.75954 12.0437C1.97256 12.5528 2.28733 13.0216 2.69094 13.4212C3.09474 13.821 3.58074 14.1446 4.12484 14.3677ZM5.85664 13.0578C5.54311 13.0578 5.22908 12.9969 4.93124 12.8748C4.63292 12.7524 4.35345 12.5696 4.11249 12.3311C3.87132 12.0923 3.67463 11.8034 3.53871 11.4785C3.51019 11.4104 3.48453 11.341 3.46178 11.2708H8.2515C8.22875 11.341 8.20309 11.4104 8.17457 11.4785C8.03864 11.8034 7.84196 12.0923 7.60079 12.3311C7.35982 12.5696 7.08036 12.7524 6.78204 12.8748C6.4842 12.9969 6.17016 13.0578 5.85664 13.0578Z" fill="#FDE047"/>
<path fill-rule="evenodd" clip-rule="evenodd" d="M11.9134 14.3841C12.5092 14.5979 13.1477 14.7079 13.7923 14.7079C14.4369 14.7079 15.0754 14.5979 15.6712 14.3841C16.2671 14.1703 16.8089 13.8568 17.2655 13.4612C17.7221 13.0657 18.0846 12.5958 18.3321 12.0784C18.5795 11.5609 18.7069 11.0061 18.7069 10.4458V9.62074H8.8777V10.4458C8.8777 11.0061 9.00512 11.5609 9.25255 12.0784C9.49998 12.5958 9.86248 13.0657 10.3191 13.4612C10.7757 13.8568 11.3175 14.1703 11.9134 14.3841ZM13.7923 13.0578C13.3948 13.0578 13.0014 12.99 12.6345 12.8584C12.2675 12.7267 11.9345 12.5339 11.6542 12.2911C11.374 12.0483 11.152 11.7604 11.0006 11.4438C10.9734 11.3868 10.9485 11.3291 10.926 11.2708H16.6586C16.6361 11.3291 16.6113 11.3868 16.584 11.4438C16.4326 11.7604 16.2106 12.0483 15.9304 12.2911C15.6501 12.5339 15.3171 12.7267 14.9502 12.8584C14.5832 12.99 14.1898 13.0578 13.7923 13.0578Z" fill="#FDE047"/>
<path fill-rule="evenodd" clip-rule="evenodd" d="M19.849 14.3841C20.4448 14.5979 21.0833 14.7079 21.7279 14.7079C22.3725 14.7079 23.011 14.5979 23.6068 14.3841C24.2027 14.1703 24.7445 13.8568 25.2011 13.4612C25.6577 13.0657 26.0202 12.5958 26.2677 12.0784C26.5151 11.5609 26.6425 11.0061 26.6425 10.4458V9.62074H16.8133V10.4458C16.8133 11.0061 16.9407 11.5609 17.1881 12.0784C17.4356 12.5958 17.7981 13.0657 18.2547 13.4612C18.7113 13.8568 19.2531 14.1703 19.849 14.3841ZM21.7279 13.0578C21.3304 13.0578 20.937 12.99 20.57 12.8584C20.2031 12.7267 19.8701 12.5339 19.5898 12.2911C19.3096 12.0483 19.0876 11.7604 18.9362 11.4438C18.9089 11.3868 18.8841 11.3291 18.8616 11.2708H24.5942C24.5717 11.3291 24.5468 11.3868 24.5196 11.4438C24.3682 11.7604 24.1462 12.0483 23.866 12.2911C23.5857 12.5339 23.2527 12.7267 22.8857 12.8584C22.5188 12.99 22.1254 13.0578 21.7279 13.0578Z" fill="#FDE047"/>
<path fill-rule="evenodd" clip-rule="evenodd" d="M28.2802 14.3841C28.8761 14.5979 29.5145 14.7079 30.1591 14.7079C30.8038 14.7079 31.4422 14.5979 32.0381 14.3841C32.634 14.1703 33.1757 13.8568 33.6323 13.4612C34.089 13.0657 34.4515 12.5958 34.6989 12.0784C34.9463 11.5609 35.0738 11.0061 35.0738 10.4458H33.1801C33.1801 10.7881 33.1022 11.1272 32.9509 11.4438C32.7995 11.7604 32.5775 12.0483 32.2972 12.2911C32.0169 12.5339 31.6839 12.7267 31.317 12.8584C30.9501 12.99 30.5566 13.0578 30.1591 13.0578C29.7617 13.0578 29.3682 12.99 29.0013 12.8584C28.6344 12.7267 28.3014 12.5339 28.0211 12.2911C27.7408 12.0483 27.5188 11.7604 27.3674 11.4438C27.2161 11.1272 27.1382 10.7881 27.1382 10.4458H25.2445C25.2445 11.0061 25.372 11.5609 25.6194 12.0784C25.8668 12.5958 26.2293 13.0657 26.6859 13.4612C27.1426 13.8568 27.6843 14.1703 28.2802 14.3841Z" fill="#FDE047"/>
<path d="M86.6774 30.0206C83.95 30.0206 82.1261 28.3506 82.1261 25.6446C82.1261 22.9386 83.7994 21.2532 86.4264 21.2532C87.2463 21.2532 87.9993 21.4387 88.6686 21.8098C90.0072 22.5675 90.7602 23.9746 90.6932 25.6446C90.6765 26.0776 90.392 26.325 89.8566 26.325H83.8328C84.0838 27.8558 85.1547 28.7063 86.6941 28.7063C87.5475 28.7063 88.2503 28.5053 88.8192 28.1032C89.0032 27.9641 89.204 27.9022 89.4215 27.9022C89.6056 27.9022 89.7729 27.9641 89.9068 28.0878C90.0406 28.2115 90.1076 28.3661 90.1076 28.5362C90.1076 28.7527 90.0072 28.9537 89.8064 29.1238C89.1873 29.6341 87.9323 30.0206 86.6774 30.0206ZM83.8161 24.9952H88.9865C88.9363 23.5881 87.8654 22.5984 86.4431 22.5984C84.9706 22.5984 84.0671 23.4334 83.8161 24.9952Z" fill="#FDE047"/>
<path d="M75.7929 30.0093C75.2742 30.0093 74.973 29.7308 74.973 29.2358V22.0885C74.973 21.5935 75.2575 21.315 75.7929 21.315C76.3116 21.315 76.5961 21.5935 76.5961 22.0885V22.4444C77.2152 21.6863 78.1188 21.2532 79.1227 21.2532C79.9092 21.2532 80.5115 21.3769 80.9299 21.609C81.1641 21.7482 81.2812 21.9338 81.2812 22.1659C81.2812 22.3206 81.2478 22.4444 81.1641 22.5527C81.047 22.7538 80.8629 22.8621 80.6119 22.8621C80.4781 22.8621 80.3442 22.8311 80.2104 22.7692C79.9259 22.6609 79.5745 22.5991 79.1395 22.5991C77.7339 22.5991 76.5961 23.7748 76.5961 25.4765V29.2358C76.5961 29.7308 76.3116 30.0093 75.7929 30.0093Z" fill="#FDE047"/>
<path d="M68.8851 30.0206C68.0317 30.0206 67.2286 29.8196 66.5091 29.433C65.0533 28.629 64.1665 27.2218 64.1665 25.6292C64.1665 24.8406 64.384 24.0983 64.8023 23.4334C65.6557 22.0727 67.1616 21.2532 68.8851 21.2532C69.7385 21.2532 70.5416 21.4542 71.2612 21.8407C72.6834 22.6448 73.587 24.0674 73.587 25.6292C73.587 26.4332 73.3862 27.16 72.9679 27.8249C72.1145 29.1856 70.6086 30.0206 68.8851 30.0206ZM65.8063 25.6446C65.8063 27.4538 67.1616 28.6908 68.8851 28.6908C70.6755 28.6908 71.9472 27.3765 71.9472 25.6446C71.9472 23.9128 70.6755 22.5984 68.8851 22.5984C67.1616 22.5984 65.8063 23.8355 65.8063 25.6446Z" fill="#FDE047"/>
<path d="M60.4278 30.0209C58.4199 30.0209 57.2988 29.0228 57.2988 26.9696V23.3053H55.8765C55.3411 23.3053 55.0399 23.0914 55.0399 22.6779C55.0399 22.2787 55.3411 22.0505 55.8765 22.0505H57.2988V19.2844C57.2988 18.8281 57.5832 18.5715 58.1019 18.5715C58.6374 18.5715 58.9219 18.8281 58.9219 19.2844V22.0505H61.6493C62.1847 22.0505 62.4859 22.2787 62.4859 22.6779C62.4859 23.0771 62.1847 23.3053 61.6493 23.3053H58.9219V26.9696C58.9219 28.2671 59.4406 28.7804 60.4278 28.7804C61.0804 28.7804 61.5656 28.5951 62.0509 28.1531C62.2015 27.9962 62.3855 27.9249 62.6198 27.9249C62.8038 27.9249 62.9879 27.9962 63.1385 28.1246C63.2723 28.2529 63.3393 28.3812 63.3393 28.5238C63.3393 28.7091 63.2389 28.9088 63.0381 29.0941C62.3855 29.7072 61.5154 30.0209 60.4278 30.0209Z" fill="#FDE047"/>
<path d="M50.8626 30.0206C49.6579 30.0206 48.2523 29.6804 47.5161 29.1702C47.2986 29.0001 47.1814 28.7991 47.1814 28.598C47.1814 28.4589 47.2316 28.3352 47.332 28.196C47.4659 28.0259 47.6667 27.9331 47.9177 27.9331C48.1017 27.9331 48.2858 27.995 48.4364 28.1032C49.022 28.4898 50.0093 28.7372 50.8626 28.7372C52.1511 28.7372 52.8706 28.2888 52.8706 27.5002C52.8706 26.7116 52.2514 26.3405 50.9798 26.2013L50.3774 26.124C48.4197 25.8766 47.3822 25.1189 47.3822 23.7118C47.3822 22.3356 48.6372 21.2532 50.6953 21.2532C51.7495 21.2532 52.8371 21.516 53.5566 21.9954C53.7741 22.1345 53.8913 22.3201 53.8913 22.552C53.8913 22.6912 53.8243 22.8458 53.7072 22.985C53.5733 23.1396 53.406 23.2169 53.2219 23.2169C53.0714 23.2169 52.8706 23.1551 52.653 23.0314C52.1343 22.7221 51.2977 22.5211 50.6786 22.5211C49.6244 22.5211 48.9886 22.9077 48.9886 23.6654C48.9886 24.3612 49.524 24.7014 50.6786 24.8869L51.3144 24.9797C53.4395 25.289 54.5104 26.124 54.5104 27.4847C54.5104 29.0465 53.1383 30.0206 50.8626 30.0206Z" fill="#FDE047"/>
<path d="M36.3056 29.3526C35.4635 29.3526 34.6709 29.1501 33.9609 28.7607C32.5244 27.9508 31.6493 26.5335 31.6493 24.9292C31.6493 24.1349 31.864 23.3873 32.2768 22.7176C33.1189 21.347 34.6049 20.5215 36.3056 20.5215C37.1476 20.5215 37.9402 20.7239 38.6502 21.1133C40.0537 21.9232 40.9453 23.3562 40.9453 24.9292C40.9453 25.7392 40.7471 26.4712 40.3343 27.1409C39.4923 28.5115 38.0062 29.3526 36.3056 29.3526ZM33.2675 24.9448C33.2675 26.7671 34.6049 28.0131 36.3056 28.0131C38.0723 28.0131 39.3271 26.6892 39.3271 24.9448C39.3271 23.2004 38.0723 21.8765 36.3056 21.8765C34.6049 21.8765 33.2675 23.1225 33.2675 24.9448Z" fill="#FDE047"/>
<path d="M22.0431 29.3526C20.6558 29.3526 19.797 28.5953 19.797 27.2971V17.8849C19.797 17.2204 20.276 16.8031 20.9531 16.8031H23.1497C26.9318 16.8031 29.5577 19.2295 29.5577 23.1242C29.5577 24.3761 29.2935 25.4579 28.7815 26.4007C27.7245 28.2708 25.7261 29.3526 23.1497 29.3526H22.0431ZM21.399 27.2662C21.399 27.6835 21.6963 27.9616 22.1422 27.9616H23.1497C24.025 27.9616 24.8343 27.7762 25.5445 27.3898C27.0143 26.6325 27.9062 25.087 27.9062 23.0933C27.9062 22.0424 27.6915 21.146 27.2786 20.3887C26.4363 18.9513 24.9499 18.194 23.1497 18.194H21.6468C21.5146 18.194 21.399 18.3022 21.399 18.4259V27.2662Z" fill="#FDE047"/>
<path d="M16.5434 19.5919C16.5434 20.1053 16.0752 20.5215 15.4976 20.5215C14.9201 20.5215 14.4519 20.1053 14.4519 19.5919C14.4519 19.0785 14.9201 18.6623 15.4976 18.6623C16.0752 18.6623 16.5434 19.0785 16.5434 19.5919Z" fill="#FDE047"/>
<path d="M16.5434 26.5638C16.5434 27.0772 16.0752 27.4934 15.4976 27.4934C14.9201 27.4934 14.4519 27.0772 14.4519 26.5638C14.4519 26.0504 14.9201 25.6342 15.4976 25.6342C16.0752 25.6342 16.5434 26.0504 16.5434 26.5638Z" fill="#FDE047"/>
<path d="M42.9641 1.9423V1.4423C42.688 1.4423 42.4641 1.66616 42.4641 1.9423H42.9641ZM42.9641 32.1143V32.6143C43.2403 32.6143 43.4641 32.3904 43.4641 32.1143H42.9641ZM45.1284 1.9423H45.6284C45.6284 1.66616 45.4045 1.4423 45.1284 1.4423V1.9423ZM9.88721 33.5406L10.2996 33.2579L9.88721 33.5406ZM9.63923 33.1788L9.2268 33.4615H9.22681L9.63923 33.1788ZM9.48615 12.4345V11.9345C9.21001 11.9345 8.98615 12.1584 8.98615 12.4345H9.48615ZM11.6504 12.4345H12.1504C12.1504 12.1584 11.9265 11.9345 11.6504 11.9345V12.4345ZM11.6504 32.1143H11.1504C11.1504 32.3904 11.3742 32.6143 11.6504 32.6143V32.1143ZM10.3985 1.07313L10.2272 0.603398L10.3985 1.07313ZM45.0442 1.57812L45.4947 1.36122V1.36122L45.0442 1.57812ZM44.8184 2.60354L44.4866 2.22952V2.22952L44.8184 2.60354ZM35.643 10.744L35.9748 11.1181V11.1181L35.643 10.744ZM1.40026 10.4745L0.957245 10.7063L0.957245 10.7063L1.40026 10.4745ZM1.56794 9.46504L1.92203 9.81806L1.56794 9.46504ZM9.50346 1.50544L9.14937 1.15242L9.14937 1.15242L9.50346 1.50544ZM9.90254 1.25403L10.0739 1.72376L10.0739 1.72376L9.90254 1.25403ZM10.9715 2.90844L10.8002 2.43871C10.7314 2.46378 10.669 2.50362 10.6174 2.55543L10.9715 2.90844ZM11.0337 2.88575V2.38575C10.9753 2.38575 10.9173 2.39599 10.8624 2.41602L11.0337 2.88575ZM41.4669 2.88575L41.7987 3.25976C41.9541 3.12194 42.008 2.90243 41.9343 2.70828C41.8606 2.51412 41.6746 2.38575 41.4669 2.38575V2.88575ZM34.4169 9.14051V9.64051C34.5392 9.64051 34.6573 9.59569 34.7488 9.51452L34.4169 9.14051ZM4.75828 9.14051L4.40419 8.78749C4.26151 8.93061 4.21901 9.14555 4.29649 9.3322C4.37396 9.51885 4.55619 9.64051 4.75828 9.64051V9.14051ZM4.12484 14.3677L3.93514 14.8303L4.12484 14.3677ZM7.58843 14.3677L7.39873 13.9051L7.58843 14.3677ZM9.02234 13.4212L9.37411 13.7765L9.02234 13.4212ZM9.95374 12.0437L9.49248 11.8507L9.95374 12.0437ZM10.2753 9.62074H10.7753V9.12074H10.2753V9.62074ZM1.438 9.62074V9.12074H0.937998L0.937998 9.62074H1.438ZM1.438 10.4458H1.938H1.438ZM1.75954 12.0437L2.2208 11.8507L1.75954 12.0437ZM2.69094 13.4212L3.04271 13.0659L2.69094 13.4212ZM4.93124 12.8748L4.74154 13.3374L4.93124 12.8748ZM4.11249 12.3311L4.46426 11.9758L4.11249 12.3311ZM3.53871 11.4785L3.07745 11.6715L3.07745 11.6715L3.53871 11.4785ZM3.46178 11.2708V10.7708H2.77438L2.98609 11.4248L3.46178 11.2708ZM8.2515 11.2708L8.72719 11.4248L8.9389 10.7708H8.2515V11.2708ZM8.17457 11.4785L7.71332 11.2855L7.71332 11.2855L8.17457 11.4785ZM7.60079 12.3311L7.95257 12.6864H7.95257L7.60079 12.3311ZM6.78204 12.8748L6.59233 12.4121L6.78204 12.8748ZM11.9134 14.3841L12.0822 13.9135L11.9134 14.3841ZM15.6712 14.3841L15.5024 13.9135L15.6712 14.3841ZM17.2655 13.4612L17.5929 13.8391L17.2655 13.4612ZM18.3321 12.0784L17.881 11.8627L18.3321 12.0784ZM18.7069 10.4458L19.2069 10.4458V10.4458H18.7069ZM18.7069 9.62074H19.2069V9.12074H18.7069V9.62074ZM8.8777 9.62074V9.12074H8.3777V9.62074H8.8777ZM8.8777 10.4458H9.3777H8.8777ZM9.25255 12.0784L9.70363 11.8627L9.25255 12.0784ZM10.3191 13.4612L10.6465 13.0833L10.3191 13.4612ZM12.6345 12.8584L12.8033 12.3877L12.6345 12.8584ZM11.6542 12.2911L11.3269 12.669L11.6542 12.2911ZM11.0006 11.4438L10.5495 11.6595V11.6595L11.0006 11.4438ZM10.926 11.2708V10.7708H10.1978L10.4594 11.4504L10.926 11.2708ZM16.6586 11.2708L17.1252 11.4504L17.3868 10.7708H16.6586V11.2708ZM16.584 11.4438L16.1329 11.2281L16.584 11.4438ZM15.9304 12.2911L16.2577 12.669H16.2577L15.9304 12.2911ZM14.9502 12.8584L15.119 13.329L14.9502 12.8584ZM19.849 14.3841L20.0178 13.9135L19.849 14.3841ZM23.6068 14.3841L23.438 13.9135L23.6068 14.3841ZM25.2011 13.4612L25.5285 13.8391L25.2011 13.4612ZM26.2677 12.0784L25.8166 11.8627L26.2677 12.0784ZM26.6425 10.4458L27.1425 10.4458V10.4458H26.6425ZM26.6425 9.62074H27.1425V9.12074H26.6425V9.62074ZM16.8133 9.62074V9.12074H16.3133V9.62074H16.8133ZM16.8133 10.4458H17.3133H16.8133ZM17.1881 12.0784L17.6392 11.8627L17.1881 12.0784ZM18.2547 13.4612L18.5821 13.0833L18.2547 13.4612ZM20.57 12.8584L20.7389 12.3877L20.57 12.8584ZM19.5898 12.2911L19.2625 12.669L19.5898 12.2911ZM18.9362 11.4438L18.4851 11.6595V11.6595L18.9362 11.4438ZM18.8616 11.2708V10.7708H18.1334L18.395 11.4504L18.8616 11.2708ZM24.5942 11.2708L25.0608 11.4504L25.3224 10.7708H24.5942V11.2708ZM24.5196 11.4438L24.0685 11.2281L24.5196 11.4438ZM23.866 12.2911L24.1933 12.669L23.866 12.2911ZM22.8857 12.8584L23.0546 13.329H23.0546L22.8857 12.8584ZM28.2802 14.3841L28.4491 13.9135L28.2802 14.3841ZM32.0381 14.3841L31.8692 13.9135L32.0381 14.3841ZM33.6323 13.4612L33.9597 13.8391L33.6323 13.4612ZM34.6989 12.0784L35.15 12.2941L34.6989 12.0784ZM35.0738 10.4458L35.5738 10.4458V9.94576H35.0738V10.4458ZM33.1801 10.4458V9.94576H32.6801V10.4458H33.1801ZM32.9509 11.4438L32.4998 11.2281L32.9509 11.4438ZM32.2972 12.2911L32.6246 12.669L32.2972 12.2911ZM31.317 12.8584L31.1481 12.3877H31.1481L31.317 12.8584ZM29.0013 12.8584L29.1702 12.3877H29.1702L29.0013 12.8584ZM28.0211 12.2911L28.3485 11.9132L28.0211 12.2911ZM27.3674 11.4438L26.9164 11.6595L27.3674 11.4438ZM27.1382 10.4458H27.6382V9.94576H27.1382V10.4458ZM25.2445 10.4458V9.94576H24.7445V10.4458H25.2445ZM25.6194 12.0784L25.1683 12.2941L25.6194 12.0784ZM26.6859 13.4612L26.3586 13.8391L26.6859 13.4612ZM88.6686 21.8098L88.9149 21.3747L88.911 21.3725L88.6686 21.8098ZM90.6932 25.6446L90.1936 25.6246L90.1936 25.6253L90.6932 25.6446ZM83.8328 26.325V25.825H83.2442L83.3394 26.4059L83.8328 26.325ZM88.8192 28.1032L89.1077 28.5116L89.1143 28.5069L89.1207 28.5021L88.8192 28.1032ZM89.9068 28.0878L90.2461 27.7206V27.7206L89.9068 28.0878ZM89.8064 29.1238L90.1244 29.5097L90.1296 29.5053L89.8064 29.1238ZM83.8161 24.9952L83.3224 24.9158L83.2293 25.4952H83.8161V24.9952ZM88.9865 24.9952V25.4952H89.5046L89.4862 24.9774L88.9865 24.9952ZM76.5961 22.4444H76.0961V23.847L76.9834 22.7606L76.5961 22.4444ZM80.9299 21.609L81.1853 21.1792L81.1789 21.1754L81.1724 21.1717L80.9299 21.609ZM81.1641 22.5527L80.7685 22.247L80.7485 22.2728L80.7321 22.301L81.1641 22.5527ZM80.2104 22.7692L80.4202 22.3154L80.4044 22.3081L80.3883 22.3019L80.2104 22.7692ZM66.5091 29.433L66.2673 29.8707L66.2724 29.8735L66.5091 29.433ZM64.8023 23.4334L65.2255 23.6997L65.2259 23.6991L64.8023 23.4334ZM71.2612 21.8407L71.5073 21.4054L71.4978 21.4003L71.2612 21.8407ZM72.9679 27.8249L72.5447 27.5586L72.5443 27.5592L72.9679 27.8249ZM57.2988 23.3053H57.7988V22.8053H57.2988V23.3053ZM57.2988 22.0505V22.5505H57.7988V22.0505H57.2988ZM58.9219 22.0505H58.4219V22.5505H58.9219V22.0505ZM58.9219 23.3053V22.8053H58.4219V23.3053H58.9219ZM62.0509 28.1531L62.3876 28.5227L62.3999 28.5114L62.4115 28.4994L62.0509 28.1531ZM63.1385 28.1246L63.4845 27.7636L63.4739 27.7535L63.4628 27.744L63.1385 28.1246ZM63.0381 29.0941L62.6989 28.7267L62.6957 28.7297L63.0381 29.0941ZM47.5161 29.1702L47.2081 29.564L47.2194 29.5729L47.2313 29.5811L47.5161 29.1702ZM47.332 28.196L46.9391 27.8868L46.9327 27.895L46.9265 27.9035L47.332 28.196ZM48.4364 28.1032L48.1446 28.5092L48.1527 28.515L48.161 28.5205L48.4364 28.1032ZM50.9798 26.2013L50.9161 26.6973L50.9254 26.6983L50.9798 26.2013ZM50.3774 26.124L50.441 25.628L50.4401 25.6279L50.3774 26.124ZM53.5566 21.9954L53.2793 22.4116L53.2871 22.4166L53.5566 21.9954ZM53.7072 22.985L54.0853 23.3123L54.0897 23.307L53.7072 22.985ZM52.653 23.0314L52.3969 23.4609L52.4059 23.466L52.653 23.0314ZM50.6786 24.8869L50.5992 25.3807L50.6064 25.3817L50.6786 24.8869ZM51.3144 24.9797L51.2422 25.4745L51.2424 25.4745L51.3144 24.9797ZM33.9609 28.7607L33.7154 29.1963L33.7205 29.1991L33.9609 28.7607ZM32.2768 22.7176L32.7024 22.9799L32.7028 22.9793L32.2768 22.7176ZM38.6502 21.1133L38.9002 20.6802L38.8906 20.6749L38.6502 21.1133ZM40.3343 27.1409L39.9087 26.8786L39.9083 26.8792L40.3343 27.1409ZM28.7815 26.4007L29.2169 26.6468L29.2209 26.6393L28.7815 26.4007ZM25.5445 27.3898L25.3154 26.9452L25.3055 26.9506L25.5445 27.3898ZM27.2786 20.3887L27.7176 20.1493L27.7139 20.1425L27.71 20.1359L27.2786 20.3887ZM42.4641 1.9423V32.1143H43.4641V1.9423H42.4641ZM45.1284 1.4423H42.9641V2.4423H45.1284V1.4423ZM45.6284 33.0571V1.9423H44.6284V33.0571H45.6284ZM44.0462 34.5C44.8531 34.5 45.6284 33.9165 45.6284 33.0571H44.6284C44.6284 33.2393 44.4346 33.5 44.0462 33.5V34.5ZM10.8163 34.5H44.0462V33.5H10.8163V34.5ZM9.47479 33.8233C9.77401 34.2598 10.2903 34.5 10.8163 34.5V33.5C10.5804 33.5 10.391 33.3912 10.2996 33.2579L9.47479 33.8233ZM9.22681 33.4615L9.47479 33.8233L10.2996 33.2579L10.0516 32.8961L9.22681 33.4615ZM8.98615 32.6953C8.98615 32.9708 9.07205 33.2357 9.2268 33.4615L10.0516 32.8961C10.006 32.8296 9.98615 32.7604 9.98615 32.6953H8.98615ZM8.98615 12.4345V32.6953H9.98615V12.4345H8.98615ZM11.6504 11.9345H9.48615V12.9345H11.6504V11.9345ZM12.1504 32.1143V12.4345H11.1504V32.1143H12.1504ZM42.9641 31.6143H11.6504V32.6143H42.9641V31.6143ZM10.8164 0.5C10.6155 0.5 10.4154 0.53473 10.2272 0.603398L10.5698 1.54286C10.6463 1.51499 10.7302 1.5 10.8164 1.5V0.5ZM44.0463 0.5H10.8164V1.5H44.0463V0.5ZM45.4947 1.36122C45.2308 0.813157 44.6452 0.5 44.0463 0.5V1.5C44.3193 1.5 44.5203 1.64261 44.5937 1.79502L45.4947 1.36122ZM45.1502 2.97756C45.6111 2.56868 45.7669 1.92662 45.4947 1.36122L44.5937 1.79502C44.6587 1.9301 44.6366 2.09644 44.4866 2.22952L45.1502 2.97756ZM35.9748 11.1181L45.1502 2.97755L44.4866 2.22952L35.3111 10.37L35.9748 11.1181ZM34.8709 11.5263C35.2746 11.5263 35.6733 11.3855 35.9748 11.1181L35.3111 10.37C35.2056 10.4636 35.048 10.5263 34.8709 10.5263V11.5263ZM2.38487 11.5263H34.8709V10.5263H2.38487V11.5263ZM0.957245 10.7063C1.23117 11.2298 1.80181 11.5263 2.38487 11.5263V10.5263C2.12014 10.5263 1.92106 10.3914 1.84328 10.2427L0.957245 10.7063ZM1.21385 9.11203C0.789785 9.53738 0.674963 10.1669 0.957245 10.7063L1.84328 10.2427C1.77385 10.11 1.79012 9.95037 1.92203 9.81806L1.21385 9.11203ZM9.14937 1.15242L1.21385 9.11203L1.92203 9.81806L9.85755 1.85845L9.14937 1.15242ZM9.73121 0.784298C9.51306 0.863866 9.31303 0.98826 9.14937 1.15242L9.85755 1.85845C9.91205 1.80378 9.98515 1.75612 10.0739 1.72376L9.73121 0.784298ZM10.2272 0.603398L9.73121 0.784298L10.0739 1.72376L10.5698 1.54286L10.2272 0.603398ZM11.1428 3.37817L11.205 3.35548L10.8624 2.41602L10.8002 2.43871L11.1428 3.37817ZM11.0337 3.38575H41.4669V2.38575H11.0337V3.38575ZM41.1351 2.51173L34.0851 8.76649L34.7488 9.51452L41.7987 3.25976L41.1351 2.51173ZM34.4169 8.64051H4.75828V9.64051H34.4169V8.64051ZM5.11237 9.49352L11.3256 3.26146L10.6174 2.55543L4.40419 8.78749L5.11237 9.49352ZM5.85664 14.2079C5.32329 14.2079 4.79886 14.1037 4.31455 13.9051L3.93514 14.8303C4.54002 15.0784 5.19335 15.2079 5.85664 15.2079V14.2079ZM7.39873 13.9051C6.91441 14.1037 6.38998 14.2079 5.85664 14.2079V15.2079C6.51993 15.2079 7.17326 15.0784 7.77814 14.8303L7.39873 13.9051ZM8.67056 13.0659C8.31341 13.4195 7.88253 13.7067 7.39873 13.9051L7.77814 14.8303C8.38256 14.5825 8.92366 14.2225 9.37411 13.7765L8.67056 13.0659ZM9.49248 11.8507C9.30499 12.2988 9.0275 12.7125 8.67056 13.0659L9.37411 13.7765C9.82439 13.3308 10.1764 12.8068 10.415 12.2366L9.49248 11.8507ZM9.77528 10.4458C9.77528 10.9255 9.67995 11.4026 9.49248 11.8507L10.415 12.2366C10.6535 11.6665 10.7753 11.0582 10.7753 10.4458H9.77528ZM9.77528 9.62074V10.4458H10.7753V9.62074H9.77528ZM1.938 10.4458L1.938 9.62074H0.937998L0.937997 10.4458H1.938ZM2.2208 11.8507C2.03332 11.4026 1.938 10.9255 1.938 10.4458H0.937997C0.937997 11.0582 1.05974 11.6665 1.29829 12.2366L2.2208 11.8507ZM3.04271 13.0659C2.68578 12.7125 2.40829 12.2988 2.2208 11.8507L1.29829 12.2366C1.53683 12.8068 1.88889 13.3308 2.33917 13.7765L3.04271 13.0659ZM4.31455 13.9051C3.83075 13.7067 3.39987 13.4195 3.04271 13.0659L2.33917 13.7765C2.78962 14.2225 3.33072 14.5825 3.93514 14.8303L4.31455 13.9051ZM4.74154 13.3374C5.09967 13.4842 5.47816 13.5578 5.85664 13.5578V12.5578C5.60807 12.5578 5.35848 12.5095 5.12095 12.4121L4.74154 13.3374ZM3.76071 12.6864C4.04835 12.9712 4.38293 13.1903 4.74154 13.3374L5.12095 12.4121C4.8829 12.3145 4.65856 12.1681 4.46426 11.9758L3.76071 12.6864ZM3.07745 11.6715C3.23891 12.0574 3.47289 12.4015 3.76071 12.6864L4.46426 11.9758C4.26975 11.7832 4.11035 11.5494 3.99996 11.2855L3.07745 11.6715ZM2.98609 11.4248C3.0131 11.5082 3.04357 11.5905 3.07745 11.6715L3.99996 11.2855C3.97681 11.2302 3.95597 11.1739 3.93748 11.1168L2.98609 11.4248ZM8.63583 11.6715C8.66971 11.5905 8.70018 11.5082 8.72719 11.4248L7.7758 11.1168C7.75731 11.1739 7.73647 11.2302 7.71332 11.2855L8.63583 11.6715ZM7.95257 12.6864C8.24039 12.4015 8.47436 12.0574 8.63583 11.6715L7.71332 11.2855C7.60292 11.5494 7.44353 11.7832 7.24902 11.9758L7.95257 12.6864ZM6.97174 13.3374C7.33035 13.1903 7.66493 12.9712 7.95257 12.6864L7.24902 11.9758C7.05472 12.1681 6.83037 12.3145 6.59233 12.4121L6.97174 13.3374ZM5.85664 13.5578C6.23512 13.5578 6.61361 13.4842 6.97174 13.3374L6.59233 12.4121C6.3548 12.5095 6.10521 12.5578 5.85664 12.5578V13.5578ZM1.438 10.1207H10.2753V9.12074H1.438V10.1207ZM8.2515 10.7708H3.46178V11.7708H8.2515V10.7708ZM13.7923 14.2079C13.2041 14.2079 12.6229 14.1075 12.0822 13.9135L11.7445 14.8547C12.3956 15.0883 13.0912 15.2079 13.7923 15.2079V14.2079ZM15.5024 13.9135C14.9617 14.1075 14.3805 14.2079 13.7923 14.2079V15.2079C14.4934 15.2079 15.189 15.0883 15.8401 14.8547L15.5024 13.9135ZM16.9381 13.0833C16.5305 13.4365 16.043 13.7195 15.5024 13.9135L15.8401 14.8547C16.4912 14.6211 17.0873 14.2771 17.5929 13.8391L16.9381 13.0833ZM17.881 11.8627C17.6648 12.3148 17.3457 12.7303 16.9381 13.0833L17.5929 13.8391C18.0986 13.4011 18.5045 12.8769 18.7831 12.2941L17.881 11.8627ZM18.2069 10.4458C18.2069 10.9297 18.097 11.4109 17.881 11.8627L18.7831 12.2941C19.062 11.7109 19.2069 11.0826 19.2069 10.4458L18.2069 10.4458ZM18.2069 9.62074V10.4458H19.2069V9.62074H18.2069ZM9.3777 10.4458V9.62074H8.3777V10.4458H9.3777ZM9.70363 11.8627C9.48761 11.4109 9.3777 10.9297 9.3777 10.4458H8.3777C8.3777 11.0826 8.52263 11.7109 8.80147 12.2941L9.70363 11.8627ZM10.6465 13.0833C10.2389 12.7303 9.91981 12.3148 9.70363 11.8627L8.80147 12.2941C9.08014 12.8769 9.48605 13.4011 9.99173 13.8391L10.6465 13.0833ZM12.0822 13.9135C11.5416 13.7195 11.0542 13.4365 10.6465 13.0833L9.99173 13.8391C10.4973 14.2771 11.0934 14.6211 11.7445 14.8547L12.0822 13.9135ZM12.4656 13.329C12.8877 13.4805 13.3384 13.5578 13.7923 13.5578V12.5578C13.4513 12.5578 13.115 12.4996 12.8033 12.3877L12.4656 13.329ZM11.3269 12.669C11.6561 12.9542 12.0435 13.1775 12.4656 13.329L12.8033 12.3877C12.4916 12.2759 12.213 12.1136 11.9816 11.9132L11.3269 12.669ZM10.5495 11.6595C10.7321 12.0414 10.9976 12.3837 11.3269 12.669L11.9816 11.9132C11.7504 11.7129 11.5718 11.4793 11.4517 11.2281L10.5495 11.6595ZM10.4594 11.4504C10.4866 11.521 10.5167 11.5908 10.5495 11.6595L11.4517 11.2281C11.4301 11.1829 11.4104 11.1372 11.3927 11.0911L10.4594 11.4504ZM17.0351 11.6595C17.068 11.5908 17.098 11.521 17.1252 11.4504L16.192 11.0911C16.1742 11.1372 16.1546 11.1829 16.1329 11.2281L17.0351 11.6595ZM16.2577 12.669C16.5871 12.3837 16.8525 12.0414 17.0351 11.6595L16.1329 11.2281C16.0128 11.4793 15.8342 11.7129 15.603 11.9132L16.2577 12.669ZM15.119 13.329C15.5411 13.1775 15.9285 12.9542 16.2577 12.669L15.603 11.9132C15.3717 12.1136 15.093 12.2759 14.7813 12.3877L15.119 13.329ZM13.7923 13.5578C14.2462 13.5578 14.6969 13.4805 15.119 13.329L14.7813 12.3877C14.4696 12.4996 14.1333 12.5578 13.7923 12.5578V13.5578ZM8.8777 10.1207H18.7069V9.12074H8.8777V10.1207ZM16.6586 10.7708H10.926V11.7708H16.6586V10.7708ZM21.7279 14.2079C21.1397 14.2079 20.5585 14.1075 20.0178 13.9135L19.6801 14.8547C20.3312 15.0883 21.0268 15.2079 21.7279 15.2079V14.2079ZM23.438 13.9135C22.8973 14.1075 22.3161 14.2079 21.7279 14.2079V15.2079C22.429 15.2079 23.1246 15.0883 23.7757 14.8547L23.438 13.9135ZM24.8737 13.0833C24.466 13.4365 23.9786 13.7195 23.438 13.9135L23.7757 14.8547C24.4268 14.6211 25.0229 14.2771 25.5285 13.8391L24.8737 13.0833ZM25.8166 11.8627C25.6004 12.3148 25.2813 12.7303 24.8737 13.0833L25.5285 13.8391C26.0342 13.4011 26.4401 12.8769 26.7187 12.2941L25.8166 11.8627ZM26.1425 10.4458C26.1425 10.9297 26.0326 11.4109 25.8166 11.8627L26.7187 12.2941C26.9976 11.7109 27.1425 11.0826 27.1425 10.4458L26.1425 10.4458ZM26.1425 9.62074V10.4458H27.1425V9.62074H26.1425ZM17.3133 10.4458V9.62074H16.3133V10.4458H17.3133ZM17.6392 11.8627C17.4232 11.4109 17.3133 10.9297 17.3133 10.4458H16.3133C16.3133 11.0826 16.4582 11.7109 16.7371 12.2941L17.6392 11.8627ZM18.5821 13.0833C18.1745 12.7303 17.8554 12.3148 17.6392 11.8627L16.7371 12.2941C17.0157 12.8769 17.4216 13.4011 17.9273 13.8391L18.5821 13.0833ZM20.0178 13.9135C19.4772 13.7195 18.9897 13.4365 18.5821 13.0833L17.9273 13.8391C18.4329 14.2771 19.029 14.6211 19.6801 14.8547L20.0178 13.9135ZM20.4012 13.329C20.8233 13.4805 21.274 13.5578 21.7279 13.5578V12.5578C21.3869 12.5578 21.0506 12.4996 20.7389 12.3877L20.4012 13.329ZM19.2625 12.669C19.5917 12.9542 19.9791 13.1775 20.4012 13.329L20.7389 12.3877C20.4272 12.2759 20.1486 12.1136 19.9172 11.9132L19.2625 12.669ZM18.4851 11.6595C18.6677 12.0414 18.9331 12.3837 19.2625 12.669L19.9172 11.9132C19.686 11.7129 19.5074 11.4793 19.3873 11.2281L18.4851 11.6595ZM18.395 11.4504C18.4222 11.521 18.4523 11.5908 18.4851 11.6595L19.3873 11.2281C19.3656 11.1828 19.346 11.1372 19.3282 11.0911L18.395 11.4504ZM24.9707 11.6595C25.0035 11.5908 25.0336 11.521 25.0608 11.4504L24.1276 11.0911C24.1098 11.1372 24.0901 11.1829 24.0685 11.2281L24.9707 11.6595ZM24.1933 12.669C24.5226 12.3837 24.7881 12.0414 24.9707 11.6595L24.0685 11.2281C23.9484 11.4793 23.7698 11.7129 23.5386 11.9132L24.1933 12.669ZM23.0546 13.329C23.4767 13.1775 23.8641 12.9542 24.1933 12.669L23.5386 11.9132C23.3072 12.1136 23.0286 12.2759 22.7169 12.3877L23.0546 13.329ZM21.7279 13.5578C22.1818 13.5578 22.6325 13.4805 23.0546 13.329L22.7169 12.3877C22.4052 12.4996 22.0689 12.5578 21.7279 12.5578V13.5578ZM16.8133 10.1207H26.6425V9.12074H16.8133V10.1207ZM24.5942 10.7708H18.8616V11.7708H24.5942V10.7708ZM30.1591 14.2079C29.571 14.2079 28.9897 14.1075 28.4491 13.9135L28.1113 14.8547C28.7624 15.0883 29.4581 15.2079 30.1591 15.2079V14.2079ZM31.8692 13.9135C31.3286 14.1075 30.7473 14.2079 30.1591 14.2079V15.2079C30.8602 15.2079 31.5559 15.0883 32.207 14.8547L31.8692 13.9135ZM33.305 13.0833C32.8973 13.4365 32.4099 13.7195 31.8692 13.9135L32.207 14.8547C32.858 14.6211 33.4542 14.2771 33.9597 13.8391L33.305 13.0833ZM34.2478 11.8627C34.0316 12.3148 33.7125 12.7303 33.305 13.0833L33.9597 13.8391C34.4654 13.4011 34.8713 12.8769 35.15 12.2941L34.2478 11.8627ZM34.5738 10.4458C34.5738 10.9297 34.4638 11.4109 34.2478 11.8627L35.15 12.2941C35.4288 11.7109 35.5738 11.0826 35.5738 10.4458L34.5738 10.4458ZM33.1801 10.9458H35.0738V9.94576H33.1801V10.9458ZM33.4019 11.6595C33.5847 11.2772 33.6801 10.8646 33.6801 10.4458H32.6801C32.6801 10.7116 32.6197 10.9772 32.4998 11.2281L33.4019 11.6595ZM32.6246 12.669C32.9539 12.3837 33.2193 12.0414 33.4019 11.6595L32.4998 11.2281C32.3796 11.4793 32.201 11.7129 31.9698 11.9132L32.6246 12.669ZM31.4859 13.329C31.908 13.1775 32.2954 12.9542 32.6246 12.669L31.9698 11.9132C31.7385 12.1136 31.4598 12.2759 31.1481 12.3877L31.4859 13.329ZM30.1591 13.5578C30.6131 13.5578 31.0637 13.4805 31.4859 13.329L31.1481 12.3877C30.8364 12.4996 30.5002 12.5578 30.1591 12.5578V13.5578ZM28.8324 13.329C29.2546 13.4805 29.7052 13.5578 30.1591 13.5578V12.5578C29.8181 12.5578 29.4819 12.4996 29.1702 12.3877L28.8324 13.329ZM27.6937 12.669C28.0229 12.9542 28.4103 13.1775 28.8324 13.329L29.1702 12.3877C28.8585 12.2759 28.5798 12.1136 28.3485 11.9132L27.6937 12.669ZM26.9164 11.6595C27.099 12.0414 27.3644 12.3837 27.6937 12.669L28.3485 11.9132C28.1173 11.7129 27.9386 11.4793 27.8185 11.2281L26.9164 11.6595ZM26.6382 10.4458C26.6382 10.8646 26.7336 11.2772 26.9164 11.6595L27.8185 11.2281C27.6986 10.9772 27.6382 10.7116 27.6382 10.4458H26.6382ZM25.2445 10.9458H27.1382V9.94576H25.2445V10.9458ZM26.0705 11.8627C25.8544 11.4109 25.7445 10.9297 25.7445 10.4458H24.7445C24.7445 11.0826 24.8895 11.7109 25.1683 12.2941L26.0705 11.8627ZM27.0133 13.0833C26.6058 12.7303 26.2866 12.3148 26.0705 11.8627L25.1683 12.2941C25.447 12.8769 25.8529 13.4011 26.3586 13.8391L27.0133 13.0833ZM28.4491 13.9135C27.9084 13.7195 27.421 13.4365 27.0133 13.0833L26.3586 13.8391C26.8641 14.2771 27.4603 14.6211 28.1113 14.8547L28.4491 13.9135ZM86.6774 29.5206C85.4153 29.5206 84.4095 29.1356 83.723 28.4846C83.0396 27.8365 82.6261 26.881 82.6261 25.6446H81.6261C81.6261 27.1143 82.1245 28.3468 83.0349 29.2102C83.9422 30.0706 85.212 30.5206 86.6774 30.5206V29.5206ZM82.6261 25.6446C82.6261 24.3955 83.0104 23.433 83.6477 22.7846C84.2841 22.1372 85.2219 21.7532 86.4264 21.7532V20.7532C85.0038 20.7532 83.7914 21.2119 82.9345 22.0836C82.0784 22.9545 81.6261 24.1877 81.6261 25.6446H82.6261ZM86.4264 21.7532C87.1686 21.7532 87.837 21.9205 88.4261 22.2471L88.911 21.3725C88.1615 20.9569 87.3239 20.7532 86.4264 20.7532V21.7532ZM88.4223 22.245C89.5841 22.9026 90.2537 24.1255 90.1936 25.6246L91.1928 25.6646C91.2666 23.8238 90.4303 22.2324 88.9149 21.3747L88.4223 22.245ZM90.1936 25.6253C90.1895 25.7307 90.1594 25.7547 90.1506 25.762C90.1304 25.7787 90.0544 25.825 89.8566 25.825V26.825C90.1942 26.825 90.5281 26.7476 90.7882 26.5324C91.0597 26.3077 91.1802 25.9916 91.1928 25.6639L90.1936 25.6253ZM89.8566 25.825H83.8328V26.825H89.8566V25.825ZM83.3394 26.4059C83.4814 27.2719 83.8635 27.9834 84.4628 28.476C85.0603 28.967 85.8319 29.2063 86.6941 29.2063V28.2063C86.017 28.2063 85.4834 28.0203 85.0978 27.7034C84.714 27.388 84.4352 26.9089 84.3262 26.2441L83.3394 26.4059ZM86.6941 29.2063C87.6284 29.2063 88.4378 28.985 89.1077 28.5116L88.5306 27.6949C88.0627 28.0255 87.4665 28.2063 86.6941 28.2063V29.2063ZM89.1207 28.5021C89.2139 28.4316 89.3076 28.4022 89.4215 28.4022V27.4022C89.1004 27.4022 88.7926 27.4965 88.5176 27.7044L89.1207 28.5021ZM89.4215 28.4022C89.4875 28.4022 89.5315 28.4217 89.5674 28.455L90.2461 27.7206C90.0144 27.5064 89.7237 27.4022 89.4215 27.4022V28.4022ZM89.5674 28.455C89.6018 28.4867 89.6076 28.5094 89.6076 28.5362H90.6076C90.6076 28.2227 90.4795 27.9362 90.2461 27.7206L89.5674 28.455ZM89.6076 28.5362C89.6076 28.5796 89.5934 28.6489 89.4832 28.7423L90.1296 29.5053C90.4209 29.2585 90.6076 28.9257 90.6076 28.5362H89.6076ZM89.4884 28.7379C88.9888 29.1497 87.8622 29.5206 86.6774 29.5206V30.5206C88.0024 30.5206 89.3858 30.1184 90.1244 29.5096L89.4884 28.7379ZM83.8161 25.4952H88.9865V24.4952H83.8161V25.4952ZM89.4862 24.9774C89.4259 23.2877 88.1209 22.0984 86.4431 22.0984V23.0984C87.6099 23.0984 88.4467 23.8884 88.4868 25.013L89.4862 24.9774ZM86.4431 22.0984C85.6091 22.0984 84.8857 22.3372 84.3339 22.8423C83.7867 23.3433 83.4602 24.0585 83.3224 24.9158L84.3098 25.0745C84.423 24.3701 84.6738 23.887 85.0091 23.58C85.34 23.2771 85.8046 23.0984 86.4431 23.0984V22.0984ZM75.7929 29.5093C75.6193 29.5093 75.5517 29.4634 75.5306 29.4435C75.5141 29.4281 75.473 29.3801 75.473 29.2358H74.473C74.473 29.5864 74.5825 29.9252 74.8463 30.1728C75.1055 30.4159 75.4478 30.5093 75.7929 30.5093V29.5093ZM75.473 29.2358V22.0885H74.473V29.2358H75.473ZM75.473 22.0885C75.473 21.9362 75.5146 21.89 75.527 21.8782C75.5432 21.8628 75.6072 21.815 75.7929 21.815V20.815C75.4432 20.815 75.0972 20.9065 74.8373 21.1541C74.5737 21.4053 74.473 21.7458 74.473 22.0885H75.473ZM75.7929 21.815C75.9663 21.815 76.026 21.8607 76.0414 21.8755C76.0543 21.888 76.0961 21.9361 76.0961 22.0885H77.0961C77.0961 21.7459 76.9957 21.4073 76.7366 21.1568C76.4801 20.9086 76.1383 20.815 75.7929 20.815V21.815ZM76.0961 22.0885V22.4444H77.0961V22.0885H76.0961ZM76.9834 22.7606C77.5072 22.1193 78.2684 21.7532 79.1227 21.7532V20.7532C77.9692 20.7532 76.9232 21.2534 76.2088 22.1281L76.9834 22.7606ZM79.1227 21.7532C79.8677 21.7532 80.3736 21.8722 80.6873 22.0462L81.1724 21.1717C80.6495 20.8816 79.9507 20.7532 79.1227 20.7532V21.7532ZM80.6744 22.0388C80.7397 22.0776 80.7631 22.1076 80.7705 22.1194C80.7758 22.1277 80.7812 22.1387 80.7812 22.1659H81.7812C81.7812 21.7239 81.5399 21.3899 81.1853 21.1792L80.6744 22.0388ZM80.7812 22.1659C80.7812 22.2077 80.7767 22.2278 80.7745 22.2352C80.773 22.2403 80.7719 22.2425 80.7685 22.247L81.5598 22.8583C81.7281 22.6405 81.7812 22.3998 81.7812 22.1659H80.7812ZM80.7321 22.301C80.7123 22.335 80.6973 22.3446 80.6915 22.3479C80.6853 22.3514 80.664 22.3621 80.6119 22.3621V23.3621C81.0365 23.3621 81.3873 23.1629 81.5962 22.8043L80.7321 22.301ZM80.6119 22.3621C80.5576 22.3621 80.495 22.35 80.4202 22.3154L80.0006 23.2231C80.1934 23.3122 80.3985 23.3621 80.6119 23.3621V22.3621ZM80.3883 22.3019C80.0349 22.1674 79.6209 22.0991 79.1395 22.0991V23.0991C79.5281 23.0991 79.8169 23.1544 80.0325 23.2365L80.3883 22.3019ZM79.1395 22.0991C77.4136 22.0991 76.0961 23.545 76.0961 25.4765H77.0961C77.0961 24.0046 78.0543 23.0991 79.1395 23.0991V22.0991ZM76.0961 25.4765V29.2358H77.0961V25.4765H76.0961ZM76.0961 29.2358C76.0961 29.3882 76.0543 29.4363 76.0414 29.4488C76.026 29.4636 75.9663 29.5093 75.7929 29.5093V30.5093C76.1383 30.5093 76.4801 30.4157 76.7366 30.1675C76.9957 29.917 77.0961 29.5784 77.0961 29.2358H76.0961ZM68.8851 29.5206C68.112 29.5206 67.3904 29.339 66.7457 28.9926L66.2724 29.8735C67.0667 30.3002 67.9515 30.5206 68.8851 30.5206V29.5206ZM66.7508 28.9954C65.4394 28.271 64.6665 27.0233 64.6665 25.6292H63.6665C63.6665 27.4204 64.6672 28.9869 66.2673 29.8707L66.7508 28.9954ZM64.6665 25.6292C64.6665 24.9361 64.8567 24.286 65.2255 23.6997L64.3791 23.1672C63.9113 23.9107 63.6665 24.745 63.6665 25.6292H64.6665ZM65.2259 23.6991C65.9828 22.4923 67.324 21.7532 68.8851 21.7532V20.7532C66.9993 20.7532 65.3286 21.6531 64.3787 23.1678L65.2259 23.6991ZM68.8851 21.7532C69.6582 21.7532 70.3798 21.9348 71.0245 22.2812L71.4978 21.4003C70.7035 20.9735 69.8187 20.7532 68.8851 20.7532V21.7532ZM71.0151 22.276C72.2988 23.0017 73.087 24.2678 73.087 25.6292H74.087C74.087 23.867 73.0681 22.2879 71.5072 21.4055L71.0151 22.276ZM73.087 25.6292C73.087 26.3441 72.9102 26.9777 72.5447 27.5586L73.3911 28.0912C73.8622 27.3423 74.087 26.5223 74.087 25.6292H73.087ZM72.5443 27.5592C71.7858 28.7688 70.4429 29.5206 68.8851 29.5206V30.5206C70.7742 30.5206 72.4433 29.6025 73.3915 28.0905L72.5443 27.5592ZM65.3063 25.6446C65.3063 27.7461 66.902 29.1908 68.8851 29.1908V28.1908C67.4213 28.1908 66.3063 27.1615 66.3063 25.6446H65.3063ZM68.8851 29.1908C70.9546 29.1908 72.4472 27.6497 72.4472 25.6446H71.4472C71.4472 27.1032 70.3965 28.1908 68.8851 28.1908V29.1908ZM72.4472 25.6446C72.4472 23.6395 70.9545 22.0984 68.8851 22.0984V23.0984C70.3965 23.0984 71.4472 24.186 71.4472 25.6446H72.4472ZM68.8851 22.0984C66.902 22.0984 65.3063 23.5431 65.3063 25.6446H66.3063C66.3063 24.1278 67.4213 23.0984 68.8851 23.0984V22.0984ZM60.4278 29.5209C59.5001 29.5209 58.8616 29.2904 58.4552 28.9032C58.0531 28.5201 57.7988 27.9075 57.7988 26.9696H56.7988C56.7988 28.0849 57.105 28.998 57.7654 29.6272C58.4216 30.2524 59.3475 30.5209 60.4278 30.5209V29.5209ZM57.7988 26.9696V23.3053H56.7988V26.9696H57.7988ZM57.2988 22.8053H55.8765V23.8053H57.2988V22.8053ZM55.8765 22.8053C55.6635 22.8053 55.5766 22.7608 55.5546 22.7446C55.5523 22.7428 55.5508 22.7415 55.55 22.7408C55.5492 22.74 55.5488 22.7395 55.5487 22.7395C55.5487 22.7394 55.5486 22.7394 55.5487 22.7394C55.5487 22.7394 55.5487 22.7394 55.5487 22.7394C55.5486 22.7394 55.5486 22.7393 55.5485 22.7392C55.5484 22.739 55.5483 22.7388 55.5481 22.7384C55.5474 22.7368 55.5399 22.7203 55.5399 22.6779H54.5399C54.5399 23.0207 54.6733 23.3366 54.9601 23.5487C55.2227 23.7428 55.5541 23.8053 55.8765 23.8053V22.8053ZM55.5399 22.6779C55.5399 22.6415 55.5465 22.6269 55.5474 22.6249C55.5478 22.6241 55.5487 22.621 55.5579 22.6141C55.5821 22.5959 55.6699 22.5505 55.8765 22.5505V21.5505C55.5476 21.5505 55.2172 21.6192 54.9569 21.8149C54.6763 22.0259 54.5399 22.3378 54.5399 22.6779H55.5399ZM55.8765 22.5505H57.2988V21.5505H55.8765V22.5505ZM57.7988 22.0505V19.2844H56.7988V22.0505H57.7988ZM57.7988 19.2844C57.7988 19.1636 57.8328 19.1352 57.8386 19.1301C57.8532 19.117 57.9187 19.0715 58.1019 19.0715V18.0715C57.7665 18.0715 57.4304 18.1543 57.1731 18.3836C56.907 18.6209 56.7988 18.949 56.7988 19.2844H57.7988ZM58.1019 19.0715C58.2972 19.0715 58.3671 19.1188 58.3828 19.1326C58.3882 19.1373 58.4219 19.1639 58.4219 19.2844H59.4219C59.4219 18.9487 59.3133 18.6188 59.0426 18.3811C58.7822 18.1526 58.4421 18.0715 58.1019 18.0715V19.0715ZM58.4219 19.2844V22.0505H59.4219V19.2844H58.4219ZM58.9219 22.5505H61.6493V21.5505H58.9219V22.5505ZM61.6493 22.5505C61.8559 22.5505 61.9437 22.5959 61.9679 22.6141C61.977 22.621 61.978 22.6241 61.9783 22.6249C61.9793 22.6269 61.9859 22.6415 61.9859 22.6779H62.9859C62.9859 22.3378 62.8495 22.0259 62.5689 21.8149C62.3086 21.6192 61.9781 21.5505 61.6493 21.5505V22.5505ZM61.9859 22.6779C61.9859 22.7142 61.9793 22.7289 61.9783 22.7309C61.978 22.7317 61.977 22.7348 61.9679 22.7416C61.9437 22.7598 61.8559 22.8053 61.6493 22.8053V23.8053C61.9781 23.8053 62.3086 23.7366 62.5689 23.5409C62.8495 23.3299 62.9859 23.0179 62.9859 22.6779H61.9859ZM61.6493 22.8053H58.9219V23.8053H61.6493V22.8053ZM58.4219 23.3053V26.9696H59.4219V23.3053H58.4219ZM58.4219 26.9696C58.4219 27.6698 58.5592 28.2671 58.9276 28.69C59.3096 29.1285 59.8509 29.2804 60.4278 29.2804V28.2804C60.0174 28.2804 59.8058 28.1757 59.6816 28.0332C59.5439 27.8751 59.4219 27.567 59.4219 26.9696H58.4219ZM60.4278 29.2804C61.2039 29.2804 61.8095 29.0493 62.3876 28.5227L61.7142 27.7834C61.3218 28.1409 60.9569 28.2804 60.4278 28.2804V29.2804ZM62.4115 28.4994C62.456 28.4531 62.5035 28.4249 62.6198 28.4249V27.4249C62.2675 27.4249 61.947 27.5394 61.6902 27.8068L62.4115 28.4994ZM62.6198 28.4249C62.6745 28.4249 62.7458 28.4468 62.8142 28.5051L63.4628 27.744C63.23 27.5457 62.9332 27.4249 62.6198 27.4249V28.4249ZM62.7925 28.4855C62.8305 28.5219 62.8416 28.542 62.8432 28.5451C62.8437 28.5462 62.8424 28.5438 62.8411 28.5385C62.8398 28.5331 62.8393 28.5278 62.8393 28.5238H63.8393C63.8393 28.2006 63.6793 27.9504 63.4845 27.7636L62.7925 28.4855ZM62.8393 28.5238C62.8393 28.5239 62.8364 28.5998 62.6989 28.7267L63.3772 29.4615C63.6414 29.2177 63.8393 28.8943 63.8393 28.5238H62.8393ZM62.6957 28.7297C62.1532 29.2394 61.4142 29.5209 60.4278 29.5209V30.5209C61.6166 30.5209 62.6178 30.175 63.3805 29.4585L62.6957 28.7297ZM50.8626 29.5206C50.3039 29.5206 49.6922 29.4413 49.1352 29.3017C48.5716 29.1605 48.1003 28.9667 47.8009 28.7592L47.2313 29.5811C47.6681 29.8839 48.2677 30.1153 48.8922 30.2718C49.5232 30.4299 50.2166 30.5206 50.8626 30.5206V29.5206ZM47.8241 28.7763C47.7551 28.7224 47.7176 28.6755 47.6989 28.6434C47.6811 28.613 47.6814 28.5986 47.6814 28.598H46.6814C46.6814 29.0043 46.9167 29.3362 47.2081 29.564L47.8241 28.7763ZM47.6814 28.598C47.6814 28.5918 47.682 28.5865 47.6862 28.5754C47.6916 28.5614 47.7047 28.5341 47.7375 28.4885L46.9265 27.9035C46.7879 28.0957 46.6814 28.3202 46.6814 28.598H47.6814ZM47.725 28.5052C47.7518 28.4711 47.7992 28.4331 47.9177 28.4331V27.4331C47.5342 27.4331 47.18 27.5808 46.9391 27.8868L47.725 28.5052ZM47.9177 28.4331C47.9921 28.4331 48.0749 28.4591 48.1446 28.5092L48.7282 27.6972C48.4967 27.5308 48.2114 27.4331 47.9177 27.4331V28.4331ZM48.161 28.5205C48.8495 28.975 49.9403 29.2372 50.8626 29.2372V28.2372C50.0783 28.2372 49.1946 28.0046 48.7118 27.6859L48.161 28.5205ZM50.8626 29.2372C51.5525 29.2372 52.1604 29.1192 52.6126 28.8398C53.0934 28.5426 53.3706 28.0764 53.3706 27.5002H52.3706C52.3706 27.7125 52.2879 27.8649 52.0869 27.9891C51.8573 28.131 51.4612 28.2372 50.8626 28.2372V29.2372ZM53.3706 27.5002C53.3706 26.9438 53.1364 26.4952 52.679 26.1909C52.2629 25.9141 51.6918 25.7762 51.0342 25.7043L50.9254 26.6983C51.5394 26.7655 51.9137 26.8828 52.1251 27.0235C52.2952 27.1366 52.3706 27.268 52.3706 27.5002H53.3706ZM51.0434 25.7054L50.441 25.628L50.3137 26.6199L50.9161 26.6972L51.0434 25.7054ZM50.4401 25.6279C49.5009 25.5092 48.8561 25.2752 48.4547 24.9597C48.0792 24.6646 47.8822 24.2725 47.8822 23.7118H46.8822C46.8822 24.5582 47.204 25.2485 47.8367 25.7459C48.4434 26.2228 49.2961 26.4913 50.3147 26.62L50.4401 25.6279ZM47.8822 23.7118C47.8822 23.1886 48.116 22.716 48.5733 22.3616C49.0375 22.0017 49.7502 21.7532 50.6953 21.7532V20.7532C49.5823 20.7532 48.6385 21.0458 47.9607 21.5712C47.2759 22.102 46.8822 22.8587 46.8822 23.7118H47.8822ZM50.6953 21.7532C51.6842 21.7532 52.6659 22.0028 53.2794 22.4115L53.8338 21.5793C53.0083 21.0293 51.8148 20.7532 50.6953 20.7532V21.7532ZM53.2871 22.4166C53.3458 22.4541 53.3693 22.484 53.3784 22.4989C53.3856 22.5107 53.3913 22.5246 53.3913 22.552H54.3913C54.3913 22.1161 54.1566 21.7856 53.8261 21.5742L53.2871 22.4166ZM53.3913 22.552C53.3913 22.5423 53.3933 22.5489 53.3833 22.5721C53.3736 22.5948 53.3553 22.6266 53.3246 22.663L54.0897 23.307C54.2563 23.1091 54.3913 22.8444 54.3913 22.552H53.3913ZM53.3292 22.6577C53.2835 22.7105 53.2508 22.7169 53.2219 22.7169V23.7169C53.5612 23.7169 53.8632 23.5688 54.0852 23.3123L53.3292 22.6577ZM53.2219 22.7169C53.2117 22.7169 53.1766 22.7142 53.1156 22.6945C53.0565 22.6756 52.9834 22.6441 52.9002 22.5968L52.4059 23.466C52.6642 23.6129 52.9521 23.7169 53.2219 23.7169V22.7169ZM52.9091 22.6019C52.301 22.2394 51.3728 22.0211 50.6786 22.0211V23.0211C51.2226 23.0211 51.9677 23.2049 52.397 23.4609L52.9091 22.6019ZM50.6786 22.0211C50.1028 22.0211 49.5688 22.1246 49.1634 22.3915C48.7291 22.6773 48.4886 23.122 48.4886 23.6654H49.4886C49.4886 23.4511 49.566 23.3237 49.7132 23.2268C49.8892 23.1109 50.2002 23.0211 50.6786 23.0211V22.0211ZM48.4886 23.6654C48.4886 24.173 48.6992 24.5861 49.1134 24.8768C49.4877 25.1395 50.0037 25.2849 50.5992 25.3806L50.7579 24.3933C50.1989 24.3034 49.8699 24.186 49.6878 24.0582C49.5457 23.9585 49.4886 23.8536 49.4886 23.6654H48.4886ZM50.6064 25.3817L51.2422 25.4745L51.3866 24.485L50.7508 24.3922L50.6064 25.3817ZM51.2424 25.4745C52.2646 25.6233 52.9653 25.8905 53.4011 26.2316C53.8132 26.5542 54.0104 26.9579 54.0104 27.4847H55.0104C55.0104 26.6508 54.6721 25.9566 54.0175 25.4442C53.3865 24.9503 52.4893 24.6454 51.3864 24.4849L51.2424 25.4745ZM54.0104 27.4847C54.0104 28.0982 53.7505 28.581 53.2533 28.9286C52.7375 29.2893 51.9378 29.5206 50.8626 29.5206V30.5206C52.0631 30.5206 53.0873 30.2649 53.8264 29.7481C54.5842 29.2182 55.0104 28.433 55.0104 27.4847H54.0104ZM36.3056 28.8526C35.5456 28.8526 34.836 28.6704 34.2014 28.3223L33.7205 29.1991C34.5059 29.6299 35.3814 29.8526 36.3056 29.8526V28.8526ZM34.2065 28.3252C32.9156 27.5974 32.1493 26.3401 32.1493 24.9292H31.1493C31.1493 26.7268 32.1332 28.3043 33.7154 29.1963L34.2065 28.3252ZM32.1493 24.9292C32.1493 24.2283 32.3379 23.5714 32.7024 22.9799L31.8511 22.4552C31.3901 23.2032 31.1493 24.0415 31.1493 24.9292H32.1493ZM32.7028 22.9793C33.4505 21.7624 34.7719 21.0215 36.3056 21.0215V20.0215C34.4378 20.0215 32.7872 20.9315 31.8507 22.4558L32.7028 22.9793ZM36.3056 21.0215C37.0656 21.0215 37.7752 21.2037 38.4098 21.5517L38.8906 20.6749C38.1052 20.2442 37.2297 20.0215 36.3056 20.0215V21.0215ZM38.4003 21.5464C39.6639 22.2756 40.4453 23.5514 40.4453 24.9292H41.4453C41.4453 23.1609 40.4434 21.5709 38.9001 20.6803L38.4003 21.5464ZM40.4453 24.9292C40.4453 25.6521 40.27 26.2923 39.9087 26.8786L40.76 27.4033C41.2242 26.65 41.4453 25.8262 41.4453 24.9292H40.4453ZM39.9083 26.8792C39.1589 28.0989 37.8358 28.8526 36.3056 28.8526V29.8526C38.1766 29.8526 39.8256 28.9242 40.7604 27.4027L39.9083 26.8792ZM32.7675 24.9448C32.7675 27.0499 34.3354 28.5131 36.3056 28.5131V27.5131C34.8744 27.5131 33.7675 26.4844 33.7675 24.9448H32.7675ZM36.3056 28.5131C38.3609 28.5131 39.8271 26.9527 39.8271 24.9448H38.8271C38.8271 26.4258 37.7836 27.5131 36.3056 27.5131V28.5131ZM39.8271 24.9448C39.8271 22.9369 38.3609 21.3765 36.3056 21.3765V22.3765C37.7836 22.3765 38.8271 23.4639 38.8271 24.9448H39.8271ZM36.3056 21.3765C34.3354 21.3765 32.7675 22.8398 32.7675 24.9448H33.7675C33.7675 23.4053 34.8744 22.3765 36.3056 22.3765V21.3765ZM22.0431 28.8526C21.437 28.8526 21.0078 28.6877 20.7355 28.4411C20.4698 28.2004 20.297 27.831 20.297 27.2971H19.297C19.297 28.0614 19.5536 28.7197 20.0641 29.1822C20.5681 29.6388 21.262 29.8526 22.0431 29.8526V28.8526ZM20.297 27.2971V17.8849H19.297V27.2971H20.297ZM20.297 17.8849C20.297 17.6794 20.3674 17.5473 20.459 17.4633C20.5553 17.3751 20.7163 17.3031 20.9531 17.3031V16.3031C20.5128 16.3031 20.0957 16.4397 19.7832 16.7263C19.4661 17.017 19.297 17.4259 19.297 17.8849H20.297ZM20.9531 17.3031H23.1497V16.3031H20.9531V17.3031ZM23.1497 17.3031C24.9331 17.3031 26.403 17.8735 27.4242 18.8624C28.4433 19.8491 29.0577 21.2932 29.0577 23.1242H30.0577C30.0577 21.0606 29.3592 19.3441 28.1198 18.1439C26.8825 16.9459 25.1484 16.3031 23.1497 16.3031V17.3031ZM29.0577 23.1242C29.0577 24.3029 28.8097 25.301 28.3421 26.1621L29.2209 26.6393C29.7773 25.6148 30.0577 24.4492 30.0577 23.1242H29.0577ZM28.3462 26.1547C27.3933 27.8407 25.5793 28.8526 23.1497 28.8526V29.8526C25.8729 29.8526 28.0558 28.7008 29.2168 26.6467L28.3462 26.1547ZM23.1497 28.8526H22.0431V29.8526H23.1497V28.8526ZM20.899 27.2662C20.899 27.5988 21.0207 27.9098 21.2618 28.1355C21.4999 28.3583 21.8152 28.4616 22.1422 28.4616V27.4616C22.0233 27.4616 21.9671 27.4259 21.945 27.4053C21.926 27.3875 21.899 27.3508 21.899 27.2662H20.899ZM22.1422 28.4616H23.1497V27.4616H22.1422V28.4616ZM23.1497 28.4616C24.0964 28.4616 24.99 28.2607 25.7834 27.829L25.3055 26.9506C24.6786 27.2917 23.9536 27.4616 23.1497 27.4616V28.4616ZM25.7735 27.8343C27.4362 26.9776 28.4062 25.2425 28.4062 23.0933H27.4062C27.4062 24.9315 26.5925 26.2874 25.3155 26.9453L25.7735 27.8343ZM28.4062 23.0933C28.4062 21.9729 28.1768 20.9915 27.7176 20.1493L26.8396 20.628C27.2062 21.3004 27.4062 22.1118 27.4062 23.0933H28.4062ZM27.71 20.1359C26.7643 18.5221 25.0985 17.694 23.1497 17.694V18.694C24.8012 18.694 26.1083 19.3806 26.8472 20.6415L27.71 20.1359ZM23.1497 17.694H21.6468V18.694H23.1497V17.694ZM21.6468 17.694C21.2703 17.694 20.899 17.9954 20.899 18.4259H21.899C21.899 18.5228 21.8547 18.5915 21.815 18.6287C21.7749 18.6662 21.717 18.694 21.6468 18.694V17.694ZM20.899 18.4259V27.2662H21.899V18.4259H20.899ZM16.0434 19.5919C16.0434 19.7754 15.8561 20.0215 15.4976 20.0215V21.0215C16.2944 21.0215 17.0434 20.4352 17.0434 19.5919H16.0434ZM15.4976 20.0215C15.1392 20.0215 14.9519 19.7754 14.9519 19.5919H13.9519C13.9519 20.4352 14.7009 21.0215 15.4976 21.0215V20.0215ZM14.9519 19.5919C14.9519 19.4083 15.1392 19.1623 15.4976 19.1623V18.1623C14.7009 18.1623 13.9519 18.7486 13.9519 19.5919H14.9519ZM15.4976 19.1623C15.8561 19.1623 16.0434 19.4083 16.0434 19.5919H17.0434C17.0434 18.7486 16.2944 18.1623 15.4976 18.1623V19.1623ZM16.0434 26.5638C16.0434 26.7473 15.8561 26.9934 15.4976 26.9934V27.9934C16.2944 27.9934 17.0434 27.4071 17.0434 26.5638H16.0434ZM15.4976 26.9934C15.1392 26.9934 14.9519 26.7473 14.9519 26.5638H13.9519C13.9519 27.4071 14.7009 27.9934 15.4976 27.9934V26.9934ZM14.9519 26.5638C14.9519 26.3803 15.1392 26.1342 15.4976 26.1342V25.1342C14.7009 25.1342 13.9519 25.7205 13.9519 26.5638H14.9519ZM15.4976 26.1342C15.8561 26.1342 16.0434 26.3803 16.0434 26.5638H17.0434C17.0434 25.7205 16.2944 25.1342 15.4976 25.1342V26.1342Z" fill="#FDE047"/>
</svg>
