<svg width="24" height="24" viewBox="0 0 24 24" fill="none" xmlns="http://www.w3.org/2000/svg">
<path d="M22.1714 24L13.9429 15.7714C13.2898 16.2939 12.5388 16.7075 11.6898 17.0122C10.8408 17.317 9.93742 17.4694 8.97959 17.4694C6.6068 17.4694 4.59864 16.6476 2.9551 15.0041C1.31156 13.3605 0.489796 11.3524 0.489796 8.97959C0.489796 6.6068 1.31156 4.59864 2.9551 2.9551C4.59864 1.31156 6.6068 0.489796 8.97959 0.489796C11.3524 0.489796 13.3605 1.31156 15.0041 2.9551C16.6476 4.59864 17.4694 6.6068 17.4694 8.97959C17.4694 9.93742 17.317 10.8408 17.0122 11.6898C16.7075 12.5388 16.2939 13.2898 15.7714 13.9429L24 22.1714L22.1714 24ZM8.97959 14.8571C10.6122 14.8571 12 14.2857 13.1429 13.1429C14.2857 12 14.8571 10.6122 14.8571 8.97959C14.8571 7.34694 14.2857 5.95918 13.1429 4.81633C12 3.67347 10.6122 3.10204 8.97959 3.10204C7.34694 3.10204 5.95918 3.67347 4.81633 4.81633C3.67347 5.95918 3.10204 7.34694 3.10204 8.97959C3.10204 10.6122 3.67347 12 4.81633 13.1429C5.95918 14.2857 7.34694 14.8571 8.97959 14.8571Z" fill="#9CA3AF"/>
</svg>
